<?xml version="1.0" encoding="UTF-8" standalone="no"?>
<!DOCTYPE svg PUBLIC "-//W3C//DTD SVG 1.1//EN"
 "http://www.w3.org/Graphics/SVG/1.1/DTD/svg11.dtd">
<!-- Generated by graphviz version 2.47.0 (20210316.0004)
 -->
<!-- Title: dependencies Pages: 1 -->
<svg width="758pt" height="211pt"
 viewBox="0.00 0.00 758.00 211.00" xmlns="http://www.w3.org/2000/svg" xmlns:xlink="http://www.w3.org/1999/xlink">
<g id="graph0" class="graph" transform="scale(1 1) rotate(0) translate(4 207)">
<title>dependencies</title>
<polygon fill="white" stroke="transparent" points="-4,4 -4,-207 754,-207 754,4 -4,4"/>
<text text-anchor="start" x="354.01" y="-42.4" font-family="Times-12" font-weight="bold" font-size="14.00">Legend</text>
<polygon fill="#ffffb3" stroke="transparent" points="141,-10 141,-30 161,-30 161,-10 141,-10"/>
<text text-anchor="start" x="164.63" y="-15.4" font-family="Times-12" font-size="14.00"> &#160;Declarations</text>
<polygon fill="#8dd3c7" stroke="transparent" points="254,-10 254,-30 274,-30 274,-10 254,-10"/>
<text text-anchor="start" x="277.73" y="-15.4" font-family="Times-12" font-size="14.00"> &#160;Module</text>
<polygon fill="#80b1d3" stroke="transparent" points="340,-10 340,-30 360,-30 360,-10 340,-10"/>
<text text-anchor="start" x="363.78" y="-15.4" font-family="Times-12" font-size="14.00"> &#160;Bootstrap</text>
<polygon fill="#fdb462" stroke="transparent" points="437,-10 437,-30 457,-30 457,-10 437,-10"/>
<text text-anchor="start" x="460.67" y="-15.4" font-family="Times-12" font-size="14.00"> &#160;Providers</text>
<polygon fill="#fb8072" stroke="transparent" points="533,-10 533,-30 553,-30 553,-10 533,-10"/>
<text text-anchor="start" x="556.73" y="-15.4" font-family="Times-12" font-size="14.00"> &#160;Exports</text>
<g id="clust1" class="cluster">
<title>cluster_AppModule</title>
<polygon fill="none" stroke="black" stroke-dasharray="1,5" points="8,-70 8,-195 742,-195 742,-70 8,-70"/>
</g>
<g id="clust3" class="cluster">
<title>cluster_AppModule_imports</title>
<polygon fill="none" stroke="black" points="16,-78 16,-130 734,-130 734,-78 16,-78"/>
</g>
<!-- FilmsModule -->
<g id="node1" class="node">
<title>FilmsModule</title>
<polygon fill="#8dd3c7" stroke="black" points="725.95,-122 722.95,-126 701.95,-126 698.95,-122 634.05,-122 634.05,-86 725.95,-86 725.95,-122"/>
<text text-anchor="middle" x="680" y="-99.8" font-family="Times,serif" font-size="14.00">FilmsModule</text>
</g>
<!-- AppModule -->
<g id="node7" class="node">
<title>AppModule</title>
<polygon fill="#8dd3c7" stroke="black" points="431.66,-187 428.66,-191 407.66,-191 404.66,-187 348.34,-187 348.34,-151 431.66,-151 431.66,-187"/>
<text text-anchor="middle" x="390" y="-164.8" font-family="Times,serif" font-size="14.00">AppModule</text>
</g>
<!-- FilmsModule&#45;&gt;AppModule -->
<g id="edge1" class="edge">
<title>FilmsModule&#45;&gt;AppModule</title>
<path fill="none" stroke="black" d="M680,-122.28C680,-143.32 680,-175 680,-175 680,-175 441.86,-175 441.86,-175"/>
<polygon fill="black" stroke="black" points="441.86,-171.5 431.86,-175 441.86,-178.5 441.86,-171.5"/>
</g>
<!-- PeopleModule -->
<g id="node2" class="node">
<title>PeopleModule</title>
<polygon fill="#8dd3c7" stroke="black" points="615.65,-122 612.65,-126 591.65,-126 588.65,-122 518.35,-122 518.35,-86 615.65,-86 615.65,-122"/>
<text text-anchor="middle" x="567" y="-99.8" font-family="Times,serif" font-size="14.00">PeopleModule</text>
</g>
<!-- PeopleModule&#45;&gt;AppModule -->
<g id="edge2" class="edge">
<title>PeopleModule&#45;&gt;AppModule</title>
<path fill="none" stroke="black" d="M567,-122.02C567,-139.37 567,-163 567,-163 567,-163 441.95,-163 441.95,-163"/>
<polygon fill="black" stroke="black" points="441.95,-159.5 431.95,-163 441.95,-166.5 441.95,-159.5"/>
</g>
<!-- PlanetsModule -->
<g id="node3" class="node">
<title>PlanetsModule</title>
<polygon fill="#8dd3c7" stroke="black" points="499.99,-122 496.99,-126 475.99,-126 472.99,-122 400.01,-122 400.01,-86 499.99,-86 499.99,-122"/>
<text text-anchor="middle" x="450" y="-99.8" font-family="Times,serif" font-size="14.00">PlanetsModule</text>
</g>
<!-- PlanetsModule&#45;&gt;AppModule -->
<g id="edge3" class="edge">
<title>PlanetsModule&#45;&gt;AppModule</title>
<path fill="none" stroke="black" d="M415.92,-122.11C415.92,-122.11 415.92,-140.99 415.92,-140.99"/>
<polygon fill="black" stroke="black" points="412.42,-140.99 415.92,-150.99 419.42,-140.99 412.42,-140.99"/>
</g>
<!-- SpeciesModule -->
<g id="node4" class="node">
<title>SpeciesModule</title>
<polygon fill="#8dd3c7" stroke="black" points="382.31,-122 379.31,-126 358.31,-126 355.31,-122 279.69,-122 279.69,-86 382.31,-86 382.31,-122"/>
<text text-anchor="middle" x="331" y="-99.8" font-family="Times,serif" font-size="14.00">SpeciesModule</text>
</g>
<!-- SpeciesModule&#45;&gt;AppModule -->
<g id="edge4" class="edge">
<title>SpeciesModule&#45;&gt;AppModule</title>
<path fill="none" stroke="black" d="M365.16,-122.11C365.16,-122.11 365.16,-140.99 365.16,-140.99"/>
<polygon fill="black" stroke="black" points="361.66,-140.99 365.16,-150.99 368.66,-140.99 361.66,-140.99"/>
</g>
<!-- StarshipsModule -->
<g id="node5" class="node">
<title>StarshipsModule</title>
<polygon fill="#8dd3c7" stroke="black" points="261.38,-122 258.38,-126 237.38,-126 234.38,-122 150.62,-122 150.62,-86 261.38,-86 261.38,-122"/>
<text text-anchor="middle" x="206" y="-99.8" font-family="Times,serif" font-size="14.00">StarshipsModule</text>
</g>
<!-- StarshipsModule&#45;&gt;AppModule -->
<g id="edge5" class="edge">
<title>StarshipsModule&#45;&gt;AppModule</title>
<path fill="none" stroke="black" d="M206,-122.02C206,-139.37 206,-163 206,-163 206,-163 338.25,-163 338.25,-163"/>
<polygon fill="black" stroke="black" points="338.25,-166.5 348.25,-163 338.25,-159.5 338.25,-166.5"/>
</g>
<!-- VehiclesModule -->
<g id="node6" class="node">
<title>VehiclesModule</title>
<polygon fill="#8dd3c7" stroke="black" points="132.03,-122 129.03,-126 108.03,-126 105.03,-122 23.97,-122 23.97,-86 132.03,-86 132.03,-122"/>
<text text-anchor="middle" x="78" y="-99.8" font-family="Times,serif" font-size="14.00">VehiclesModule</text>
</g>
<!-- VehiclesModule&#45;&gt;AppModule -->
<g id="edge6" class="edge">
<title>VehiclesModule&#45;&gt;AppModule</title>
<path fill="none" stroke="black" d="M78,-122.28C78,-143.32 78,-175 78,-175 78,-175 338.25,-175 338.25,-175"/>
<polygon fill="black" stroke="black" points="338.25,-178.5 348.25,-175 338.25,-171.5 338.25,-178.5"/>
</g>
</g>
</svg>
